<svg xmlns="http://www.w3.org/2000/svg" viewBox="0 0 32 32" fill="none">
  <defs>
    <linearGradient id="grad1" x1="0%" y1="0%" x2="100%" y2="100%">
      <stop offset="0%" style="stop-color:#3b82f6;stop-opacity:1" />
      <stop offset="100%" style="stop-color:#8b5cf6;stop-opacity:1" />
    </linearGradient>
  </defs>
  
  <!-- Background circle -->
  <circle cx="16" cy="16" r="15" fill="url(#grad1)" stroke="#1e40af" stroke-width="1"/>
  
  <!-- Building structure -->
  <rect x="8" y="12" width="4" height="12" fill="#ffffff" opacity="0.9"/>
  <rect x="13" y="8" width="4" height="16" fill="#ffffff" opacity="0.9"/>
  <rect x="18" y="10" width="4" height="14" fill="#ffffff" opacity="0.9"/>
  <rect x="23" y="6" width="4" height="18" fill="#ffffff" opacity="0.9"/>
  
  <!-- Windows -->
  <rect x="9" y="14" width="1" height="1" fill="#3b82f6"/>
  <rect x="10.5" y="14" width="1" height="1" fill="#3b82f6"/>
  <rect x="9" y="16" width="1" height="1" fill="#3b82f6"/>
  <rect x="10.5" y="16" width="1" height="1" fill="#3b82f6"/>
  
  <rect x="14" y="10" width="1" height="1" fill="#3b82f6"/>
  <rect x="15.5" y="10" width="1" height="1" fill="#3b82f6"/>
  <rect x="14" y="12" width="1" height="1" fill="#3b82f6"/>
  <rect x="15.5" y="12" width="1" height="1" fill="#3b82f6"/>
  
  <rect x="19" y="12" width="1" height="1" fill="#3b82f6"/>
  <rect x="20.5" y="12" width="1" height="1" fill="#3b82f6"/>
  <rect x="19" y="14" width="1" height="1" fill="#3b82f6"/>
  <rect x="20.5" y="14" width="1" height="1" fill="#3b82f6"/>
  
  <rect x="24" y="8" width="1" height="1" fill="#3b82f6"/>
  <rect x="25.5" y="8" width="1" height="1" fill="#3b82f6"/>
  <rect x="24" y="10" width="1" height="1" fill="#3b82f6"/>
  <rect x="25.5" y="10" width="1" height="1" fill="#3b82f6"/>
  
  <!-- S letter overlay -->
  <path d="M12 18 Q14 16 16 18 Q18 20 20 18" stroke="#ffffff" stroke-width="2" fill="none" opacity="0.8"/>
</svg>
